<svg xmlns="http://www.w3.org/2000/svg" viewBox="0 0 48 48"><defs><style>.cls-1{fill:#7d649c;}.cls-2{fill:#f280a0;}.cls-3{fill:#f89bae;}.cls-4{fill:#efd1e1;}.cls-5{fill:#f16d8f;}.cls-6{fill:#fcf1ed;}.cls-7{fill:#f6fafd;}</style></defs><title>11-devil heart</title><g id="_11-devil_heart" data-name="11-devil heart"><path class="cls-1" d="M35,48H7.5a7.5,7.5,0,0,1,0-15H15v2H7.5a5.5,5.5,0,0,0,0,11H35a6.006,6.006,0,0,0,6-6h2A8.009,8.009,0,0,1,35,48Z"/><path class="cls-2" d="M37.93,7.74C41.32,9.08,44,12.23,44,17.2,44,32.5,27.33,41,24,41,22.33,41,4,32.5,4,17.2c0-5.51,3.29-8.79,7.2-9.83-.13.37-.2.6-.2.6,4,2.32,6,0,6,0v-.5c3.36,1.09,5.69,4.03,7,8.03,1.43-4.39,4.1-7.51,8-8.3v.77s2,2.32,6,0C38,7.97,37.97,7.88,37.93,7.74Z"/><path class="cls-3" d="M34,7a9.157,9.157,0,0,0-6.961,3.045c.313-.029.633-.045.961-.045,5,0,10,3.4,10,10.2,0,9.743-6.757,16.723-12.527,20.512C30.674,39.124,44,30.885,44,17.2,44,10.4,39,7,34,7Z"/><path class="cls-4" d="M17,7.47v.5s-2,2.32-6,0c0,0,.07-.23.2-.6C11.79,5.68,13.72,1,17,1V7.47Z"/><path class="cls-4" d="M37.93,7.74c.04.14.07.23.07.23-4,2.32-6,0-6,0V1C35.59,1,37.56,6.59,37.93,7.74Z"/><path class="cls-5" d="M47,39.6A2.358,2.358,0,0,1,44.5,42,2.619,2.619,0,0,1,42,40a2.619,2.619,0,0,1-2.5,2A2.358,2.358,0,0,1,37,39.6C37,36,41.17,34,42,34,42.42,34,47,36,47,39.6Z"/><path class="cls-5" d="M8,14.2a10.345,10.345,0,0,1,2.022-6.435C6.652,9.112,4,12.251,4,17.2,4,32.5,22.333,41,24,41s6.594-2.1,11.15-6.077C31.989,36.947,29.171,38,28,38,26.333,38,8,29.5,8,14.2Z"/><path class="cls-6" d="M15,3V1.628A3.674,3.674,0,0,1,17,1V7.97s-2,2.32-6,0c0,0,.016-.052.044-.138a4.519,4.519,0,0,0,2.7-.073A1.961,1.961,0,0,0,15,5.9Z"/><path class="cls-6" d="M36.538,8.653A8.6,8.6,0,0,0,38,7.97s-.03-.09-.07-.23C37.56,6.59,35.59,1,32,1V3.164C34.325,3.871,35.837,6.887,36.538,8.653Z"/><path class="cls-2" d="M42,34a5.778,5.778,0,0,0-2.459,1.177C40.856,35.734,44,37.614,44,40.6a2.391,2.391,0,0,1-.341,1.261A2.514,2.514,0,0,0,44.5,42,2.358,2.358,0,0,0,47,39.6C47,36,42.42,34,42,34Z"/><ellipse class="cls-7" cx="37" cy="15" rx="1.65" ry="2.297" transform="translate(0.236 30.569) rotate(-45.02)"/><ellipse class="cls-7" cx="38" cy="19" rx="0.985" ry="1.014" transform="translate(-2.3 32.451) rotate(-45.023)"/><ellipse class="cls-7" cx="19" cy="35" rx="0.985" ry="1.014" transform="translate(-19.188 23.702) rotate(-45.023)"/><ellipse class="cls-7" cx="44.913" cy="39.524" rx="0.413" ry="0.574" transform="translate(-14.823 42.844) rotate(-44.529)"/></g></svg>